<mxfile host="app.diagrams.net" modified="2023-06-16T01:23:46.411Z" agent="Mozilla/5.0 (Windows NT 10.0; Win64; x64) AppleWebKit/537.36 (KHTML, like Gecko) Chrome/114.0.0.0 Safari/537.36" etag="Aql5GDIJA9WhVRrTuHlU" version="21.3.2" type="github">
  <diagram name="Page-1" id="CdY-IEqtM_RVkw90ukgk">
    <mxGraphModel dx="983" dy="430" grid="1" gridSize="10" guides="1" tooltips="1" connect="1" arrows="1" fold="1" page="1" pageScale="1" pageWidth="850" pageHeight="1100" math="0" shadow="0">
      <root>
        <mxCell id="0" />
        <mxCell id="1" parent="0" />
        <mxCell id="CbHMspe8ceRNwDUp3AjZ-17" style="edgeStyle=orthogonalEdgeStyle;rounded=0;orthogonalLoop=1;jettySize=auto;html=1;exitX=0.5;exitY=0.5;exitDx=0;exitDy=0;exitPerimeter=0;" parent="1" source="CbHMspe8ceRNwDUp3AjZ-1" target="CbHMspe8ceRNwDUp3AjZ-11" edge="1">
          <mxGeometry relative="1" as="geometry" />
        </mxCell>
        <mxCell id="CbHMspe8ceRNwDUp3AjZ-1" value="Gerente" style="shape=umlActor;verticalLabelPosition=bottom;verticalAlign=top;html=1;outlineConnect=0;" parent="1" vertex="1">
          <mxGeometry x="60" y="185" width="30" height="60" as="geometry" />
        </mxCell>
        <mxCell id="CbHMspe8ceRNwDUp3AjZ-6" value="" style="swimlane;startSize=0;html=1;" parent="1" vertex="1">
          <mxGeometry x="170" y="40" width="500" height="330" as="geometry" />
        </mxCell>
        <mxCell id="CbHMspe8ceRNwDUp3AjZ-25" style="edgeStyle=orthogonalEdgeStyle;rounded=0;orthogonalLoop=1;jettySize=auto;html=1;exitX=0.5;exitY=0.5;exitDx=0;exitDy=0;exitPerimeter=0;" parent="CbHMspe8ceRNwDUp3AjZ-6" source="CbHMspe8ceRNwDUp3AjZ-9" target="CbHMspe8ceRNwDUp3AjZ-20" edge="1">
          <mxGeometry relative="1" as="geometry">
            <Array as="points">
              <mxPoint x="235" y="40" />
            </Array>
          </mxGeometry>
        </mxCell>
        <mxCell id="CbHMspe8ceRNwDUp3AjZ-26" style="edgeStyle=orthogonalEdgeStyle;rounded=0;orthogonalLoop=1;jettySize=auto;html=1;exitX=1;exitY=0.3333333333333333;exitDx=0;exitDy=0;exitPerimeter=0;" parent="CbHMspe8ceRNwDUp3AjZ-6" source="CbHMspe8ceRNwDUp3AjZ-9" target="CbHMspe8ceRNwDUp3AjZ-24" edge="1">
          <mxGeometry relative="1" as="geometry" />
        </mxCell>
        <mxCell id="CbHMspe8ceRNwDUp3AjZ-27" style="edgeStyle=orthogonalEdgeStyle;rounded=0;orthogonalLoop=1;jettySize=auto;html=1;exitX=0.5;exitY=0.5;exitDx=0;exitDy=0;exitPerimeter=0;" parent="CbHMspe8ceRNwDUp3AjZ-6" source="CbHMspe8ceRNwDUp3AjZ-9" target="CbHMspe8ceRNwDUp3AjZ-21" edge="1">
          <mxGeometry relative="1" as="geometry" />
        </mxCell>
        <mxCell id="CbHMspe8ceRNwDUp3AjZ-28" style="edgeStyle=orthogonalEdgeStyle;rounded=0;orthogonalLoop=1;jettySize=auto;html=1;exitX=0.5;exitY=0.5;exitDx=0;exitDy=0;exitPerimeter=0;" parent="CbHMspe8ceRNwDUp3AjZ-6" source="CbHMspe8ceRNwDUp3AjZ-9" target="CbHMspe8ceRNwDUp3AjZ-22" edge="1">
          <mxGeometry relative="1" as="geometry">
            <Array as="points">
              <mxPoint x="235" y="190" />
              <mxPoint x="310" y="190" />
              <mxPoint x="310" y="260" />
            </Array>
          </mxGeometry>
        </mxCell>
        <mxCell id="CbHMspe8ceRNwDUp3AjZ-29" style="edgeStyle=orthogonalEdgeStyle;rounded=0;orthogonalLoop=1;jettySize=auto;html=1;exitX=0.5;exitY=0.5;exitDx=0;exitDy=0;exitPerimeter=0;" parent="CbHMspe8ceRNwDUp3AjZ-6" source="CbHMspe8ceRNwDUp3AjZ-9" target="CbHMspe8ceRNwDUp3AjZ-23" edge="1">
          <mxGeometry relative="1" as="geometry" />
        </mxCell>
        <mxCell id="CbHMspe8ceRNwDUp3AjZ-9" value="cliente" style="shape=umlActor;verticalLabelPosition=bottom;verticalAlign=top;html=1;outlineConnect=0;" parent="CbHMspe8ceRNwDUp3AjZ-6" vertex="1">
          <mxGeometry x="220" y="100" width="30" height="60" as="geometry" />
        </mxCell>
        <mxCell id="CbHMspe8ceRNwDUp3AjZ-10" value="cadastrar" style="ellipse;whiteSpace=wrap;html=1;" parent="CbHMspe8ceRNwDUp3AjZ-6" vertex="1">
          <mxGeometry x="50" y="50" width="90" height="50" as="geometry" />
        </mxCell>
        <mxCell id="CbHMspe8ceRNwDUp3AjZ-11" value="remover" style="ellipse;whiteSpace=wrap;html=1;" parent="CbHMspe8ceRNwDUp3AjZ-6" vertex="1">
          <mxGeometry x="50" y="130" width="90" height="60" as="geometry" />
        </mxCell>
        <mxCell id="CbHMspe8ceRNwDUp3AjZ-12" value="atualizar" style="ellipse;whiteSpace=wrap;html=1;" parent="CbHMspe8ceRNwDUp3AjZ-6" vertex="1">
          <mxGeometry x="50" y="210" width="90" height="60" as="geometry" />
        </mxCell>
        <mxCell id="CbHMspe8ceRNwDUp3AjZ-13" value="" style="endArrow=none;dashed=1;html=1;rounded=0;exitX=1;exitY=0.5;exitDx=0;exitDy=0;" parent="CbHMspe8ceRNwDUp3AjZ-6" source="CbHMspe8ceRNwDUp3AjZ-10" target="CbHMspe8ceRNwDUp3AjZ-9" edge="1">
          <mxGeometry width="50" height="50" relative="1" as="geometry">
            <mxPoint x="210" y="190" as="sourcePoint" />
            <mxPoint x="260" y="140" as="targetPoint" />
          </mxGeometry>
        </mxCell>
        <mxCell id="CbHMspe8ceRNwDUp3AjZ-20" value="listar" style="ellipse;whiteSpace=wrap;html=1;" parent="CbHMspe8ceRNwDUp3AjZ-6" vertex="1">
          <mxGeometry x="250" y="20" width="90" height="40" as="geometry" />
        </mxCell>
        <mxCell id="CbHMspe8ceRNwDUp3AjZ-21" value="depositar" style="ellipse;whiteSpace=wrap;html=1;" parent="CbHMspe8ceRNwDUp3AjZ-6" vertex="1">
          <mxGeometry x="390" y="160" width="90" height="50" as="geometry" />
        </mxCell>
        <mxCell id="CbHMspe8ceRNwDUp3AjZ-22" value="agendar" style="ellipse;whiteSpace=wrap;html=1;" parent="CbHMspe8ceRNwDUp3AjZ-6" vertex="1">
          <mxGeometry x="350" y="250" width="100" height="50" as="geometry" />
        </mxCell>
        <mxCell id="CbHMspe8ceRNwDUp3AjZ-23" value="solicitar credito" style="ellipse;whiteSpace=wrap;html=1;" parent="CbHMspe8ceRNwDUp3AjZ-6" vertex="1">
          <mxGeometry x="160" y="260" width="105" height="60" as="geometry" />
        </mxCell>
        <mxCell id="CbHMspe8ceRNwDUp3AjZ-24" value="sacar" style="ellipse;whiteSpace=wrap;html=1;" parent="CbHMspe8ceRNwDUp3AjZ-6" vertex="1">
          <mxGeometry x="390" y="70" width="100" height="40" as="geometry" />
        </mxCell>
        <mxCell id="CbHMspe8ceRNwDUp3AjZ-18" style="edgeStyle=orthogonalEdgeStyle;rounded=0;orthogonalLoop=1;jettySize=auto;html=1;exitX=0.5;exitY=0.5;exitDx=0;exitDy=0;exitPerimeter=0;entryX=0;entryY=0.5;entryDx=0;entryDy=0;" parent="1" source="CbHMspe8ceRNwDUp3AjZ-1" target="CbHMspe8ceRNwDUp3AjZ-12" edge="1">
          <mxGeometry relative="1" as="geometry">
            <mxPoint x="35" y="250" as="sourcePoint" />
            <mxPoint x="210" y="220" as="targetPoint" />
            <Array as="points">
              <mxPoint x="110" y="215" />
              <mxPoint x="110" y="290" />
            </Array>
          </mxGeometry>
        </mxCell>
        <mxCell id="CbHMspe8ceRNwDUp3AjZ-19" style="edgeStyle=orthogonalEdgeStyle;rounded=0;orthogonalLoop=1;jettySize=auto;html=1;entryX=0;entryY=0.5;entryDx=0;entryDy=0;" parent="1" source="CbHMspe8ceRNwDUp3AjZ-1" target="CbHMspe8ceRNwDUp3AjZ-10" edge="1">
          <mxGeometry relative="1" as="geometry">
            <mxPoint x="45" y="260" as="sourcePoint" />
            <mxPoint x="220" y="230" as="targetPoint" />
            <Array as="points">
              <mxPoint x="120" y="215" />
              <mxPoint x="120" y="125" />
            </Array>
          </mxGeometry>
        </mxCell>
      </root>
    </mxGraphModel>
  </diagram>
</mxfile>
